PathFileType	4	(X/Y/Z)	E:\Marcel_BSc\Hannes_22_01_2025\22-01-2025\sumo_dl_3.trc
DataRate	CameraRate	NumFrames	NumMarkers	Units	OrigDataRate	OrigDataStartFrame	OrigNumFrames
200.0	200.0	4	48	mm	200.0	4476	2673	
Frame#	Time	FHD			LBHD			RBHD			RBAR			LBAR			RSACR			LSACR			USACR			LASI			C7			CLAV			T10			RSHO			LSHO			LTHI1			LTHI3			LTHI2			LTIB1			LTIB2			LTIB3			LMMAL			LLMAL			LHEE			LMT1			LMT5			LMT3			RTHI1			RTHI2			RTHI3			RTIB1			RTIB3			RTIB2			RLMAL			RMMAL			RHEE			RMT5			RMT1			RMT3			LDUPA			LMUPA			LUUPA			LUL			LRAD			LRFIN			RRAD			RMUPA			RDUPA			RUUPA			
		X1	Y1	Z1	X2	Y2	Z2	X3	Y3	Z3	X4	Y4	Z4	X5	Y5	Z5	X6	Y6	Z6	X7	Y7	Z7	X8	Y8	Z8	X9	Y9	Z9	X10	Y10	Z10	X11	Y11	Z11	X12	Y12	Z12	X13	Y13	Z13	X14	Y14	Z14	X15	Y15	Z15	X16	Y16	Z16	X17	Y17	Z17	X18	Y18	Z18	X19	Y19	Z19	X20	Y20	Z20	X21	Y21	Z21	X22	Y22	Z22	X23	Y23	Z23	X24	Y24	Z24	X25	Y25	Z25	X26	Y26	Z26	X27	Y27	Z27	X28	Y28	Z28	X29	Y29	Z29	X30	Y30	Z30	X31	Y31	Z31	X32	Y32	Z32	X33	Y33	Z33	X34	Y34	Z34	X35	Y35	Z35	X36	Y36	Z36	X37	Y37	Z37	X38	Y38	Z38	X39	Y39	Z39	X40	Y40	Z40	X41	Y41	Z41	X42	Y42	Z42	X43	Y43	Z43	X44	Y44	Z44	X45	Y45	Z45	X46	Y46	Z46	X47	Y47	Z47	X48	Y48	Z48	
4476	22.37	-316.53012	867.97119	-965.83826	-267.72302	942.33569	-862.33557	-266.32031	961.69037	-1057.874	131.46199	237.03484	-2064.7124	118.66116	249.59692	156.72639	424.79254	801.77686	-979.82635	425.33279	799.15729	-918.86365	407.48184	813.36902	-952.80627				-40.534569	1014.8248	-948.13379	-91.168633	836.05829	-956.46735	254.12965	898.67535	-947.98859	-62.889278	905.815	-1156.1724	-71.620705	899.56079	-754.34143	333.93414	650.81421	-667.68787	308.98718	603.6557	-628.91571	278.04337	643.92157	-632.01105	192.79947	270.11435	-476.4567	233.55707	280.70923	-506.01672	226.88895	216.54207	-496.12582	177.83823	82.040909	-557.33429	240.78525	83.219444	-486.60074	268.11374	26.555944	-546.72479	76.764694	41.882973	-453.75702	145.66957	27.37472	-391.30972	100.62433	32.52248	-410.673	362.22397	626.67804	-1225.0383	308.41385	625.08807	-1262.7516	334.05096	582.31982	-1264.3187	187.48293	279.02243	-1418.2822	209.3447	218.25069	-1411.9879	233.42221	275.27335	-1397.8351	231.35938	79.15432	-1411.5884	158.20599	81.780731	-1349.5615	256.54028	29.475763	-1353.3695	147.20071	24.556437	-1502.826	64.927612	37.652782	-1457.5961	94.414864	28.675961	-1495.3134	8.7358322	661.96027	-679.95599	-12.150325	720.46417	-687.09888	-38.139477	706.24493	-726.90094	64.86084	336.03619	-691.8009	61.96928	335.87326	-741.49707	80.031281	230.99127	-758.25293	136.29048	353.97552	-1220.9491	65.278557	709.6264	-1223.5703	49.290062	663.60596	-1212.5627	9.38134	731.82452	-1207.1396
4477	22.375	-316.60663	867.90521	-965.91107	-267.83466	942.20099	-862.39728	-266.35138	961.6676	-1057.8831	131.45285	237.04991	-2064.6782	118.64837	249.6144	156.72081	424.76172	801.75073	-979.78241	425.29868	799.16229	-918.80841	407.43027	813.38782	-952.74896				-40.640823	1014.763	-948.09338	-91.196655	836.00018	-956.43445	254.08083	898.66156	-947.91321	-63.024616	905.70734	-1156.1055	-71.669762	899.45709	-754.28772	333.89612	650.83374	-667.66632	308.97919	603.65405	-628.87274	278.04361	643.90613	-631.97156	192.78983	270.11469	-476.42261	233.40114	280.85916	-506.35153	227.0623	216.48373	-496.06659	177.84912	82.043228	-557.33374	240.80807	83.218811	-486.58859	268.10922	26.554939	-546.73102	76.771774	41.881958	-453.74786	145.6797	27.398001	-391.31223	100.61675	32.531693	-410.67874	362.20935	626.69183	-1225.0199	308.39819	625.09497	-1262.7311	334.01678	582.35046	-1264.3085	187.47725	279.03571	-1418.2593	209.32849	218.25978	-1411.9712	233.41359	275.26218	-1397.8239	231.33115	79.166611	-1411.6014	158.23299	81.774788	-1349.5616	256.54095	29.480337	-1353.3625	147.1895	24.543642	-1502.823	64.920586	37.658451	-1457.5963	94.407555	28.682613	-1495.2992	8.7254295	661.91187	-679.88934	-12.159088	720.35956	-687.05048	-38.144409	706.12567	-726.84406	64.932564	336.00717	-691.77814	62.012421	335.79468	-741.52728	80.071358	230.92198	-758.27826	136.63953	353.92545	-1220.9043	65.268494	709.57568	-1223.498	49.29789	663.50665	-1212.5306	9.3274918	731.71063	-1207.1204
4478	22.38	-316.6828	867.82544	-965.98376	-267.94901	942.08105	-862.42505	-266.37698	961.61523	-1057.8909	131.19444	236.70038	-2064.0654	118.64566	249.61288	156.71217	424.7211	801.74384	-979.73749	425.25259	799.15906	-918.75299	407.38553	813.39447	-952.69501				-40.747288	1014.7034	-948.05298	-91.231216	835.93024	-956.37103	254.00862	898.63684	-947.84277	-63.176876	905.64453	-1156.0084	-71.691536	899.36316	-754.23883	333.88519	650.80151	-667.62579	308.95331	603.62927	-628.8504	278.01117	643.91248	-631.93048	192.78229	270.10471	-476.40793	233.40863	280.83398	-506.32526	227.09352	216.45049	-496.05145	177.84895	82.057137	-557.3064	240.81459	83.213867	-486.59091	268.09659	26.564882	-546.71356	76.767197	41.880253	-453.75027	145.67853	27.420702	-391.3074	100.61268	32.535122	-410.67346	362.19794	626.69257	-1224.9857	308.39944	625.10931	-1262.6975	333.9978	582.36591	-1264.288	187.48933	279.04922	-1418.265	209.34886	218.27231	-1411.9746	233.41129	275.28574	-1397.8354	231.35088	79.14621	-1411.6003	158.23631	81.771378	-1349.5732	256.54367	29.48489	-1353.3699	147.1707	24.551193	-1502.8125	64.911224	37.6576	-1457.5791	94.143791	28.383663	-1495.1764	8.728343	661.88287	-679.8606	-12.156314	720.27509	-686.99738	-38.129959	706.02289	-726.79797	64.993797	335.95367	-691.7569	62.064995	335.71295	-741.51691	80.064804	230.88765	-758.28314	136.47374	353.75543	-1220.9297	65.221855	709.47998	-1223.4163	49.233006	663.42865	-1212.4812	9.2817059	731.58185	-1207.1208
4479	22.385	-316.79773	867.73193	-966.08545	-268.09189	941.98572	-862.43188	-266.41269	961.57837	-1057.8855	131.48613	237.07281	-2064.7048	118.64008	249.62419	156.71333	424.67673	801.7215	-979.69965	425.20181	799.16852	-918.70575	407.34622	813.3736	-952.6568				-40.837006	1014.6532	-948.01208	-91.226868	835.87482	-956.3429	253.95578	898.60785	-947.78314	-63.294037	905.55365	-1155.9487	-71.723434	899.30176	-754.18445	333.85196	650.79144	-667.58374	308.93646	603.64337	-628.80554	277.98871	643.89886	-631.89197	192.77493	270.12131	-476.37262	233.41293	280.85974	-506.29324	227.11382	216.48953	-496.02682	177.86462	82.051285	-557.31604	240.80045	83.210617	-486.55917	268.10318	26.564882	-546.71301	76.776329	41.886929	-453.75378	145.6859	27.442257	-391.31042	100.60335	32.545326	-410.6727	362.15442	626.71265	-1224.955	308.37299	625.13452	-1262.677	333.98926	582.3927	-1264.2637	187.4501	279.03836	-1418.2485	209.35741	218.26472	-1411.9603	233.41441	275.29404	-1397.8385	231.3718	79.181961	-1411.5865	158.24544	81.777893	-1349.5719	256.53864	29.485792	-1353.3712	147.15163	24.554066	-1502.8112	64.910652	37.657814	-1457.5745	94.123138	28.383785	-1495.1729	8.7660418	661.83716	-679.83771	-12.171072	720.20312	-686.96191	-38.169857	705.93182	-726.74011	65.024277	335.91605	-691.71649	62.040073	335.69962	-741.45001	80.078362	230.85817	-758.29333	136.24608	353.56772	-1220.9426	65.143723	709.37354	-1223.351	49.141563	663.34351	-1212.417	9.179347	731.4729	-1207.0782
